<?xml version="1.0" standalone="no"?>
<!DOCTYPE svg PUBLIC "-//W3C//DTD SVG 20010904//EN"
 "http://www.w3.org/TR/2001/REC-SVG-20010904/DTD/svg10.dtd">
<svg version="1.0" xmlns="http://www.w3.org/2000/svg"
 width="127.000000pt" height="127.000000pt" viewBox="0 0 127.000000 127.000000"
 preserveAspectRatio="xMidYMid meet">
<metadata>
Created by potrace 1.14, written by Peter Selinger 2001-2017
</metadata>
<g transform="translate(0.000000,127.000000) scale(0.100000,-0.100000)"
fill="#000000" stroke="none">
<path d="M100 640 l0 -500 55 0 c42 0 55 3 55 15 0 11 -11 15 -40 15 -22 0
-40 3 -41 8 -1 9 -1 902 0 923 1 13 10 15 41 12 31 -3 40 -1 40 12 0 12 -12
15 -55 15 l-55 0 0 -500z"/>
<path d="M1050 1130 c0 -5 6 -11 13 -12 6 0 17 -2 22 -3 6 -2 20 -3 33 -4 l22
-1 0 -470 0 -470 -45 0 c-36 0 -43 -3 -38 -15 4 -12 18 -15 57 -13 l51 3 0
495 0 495 -57 3 c-36 2 -58 -1 -58 -8z"/>
<path d="M310 1053 c-14 -7 -34 -13 -45 -13 -15 0 -17 -2 -6 -9 7 -5 22 -6 32
-4 18 5 19 -2 19 -106 0 -66 -4 -112 -10 -112 -5 -1 -14 -2 -19 -3 -5 0 -13
-4 -17 -8 -4 -5 23 -8 59 -8 38 0 67 4 67 10 0 5 -3 9 -7 9 -38 -6 -39 -1 -39
116 1 140 0 145 -34 128z"/>
<path d="M908 1056 c-34 -17 -52 -63 -52 -131 0 -73 17 -119 50 -134 37 -17
60 -14 90 12 50 44 44 219 -9 249 -29 17 -51 18 -79 4z m84 -112 c1 -95 -8
-140 -29 -148 -24 -10 -49 2 -60 27 -13 28 -14 163 -2 195 13 33 49 44 72 22
15 -14 19 -33 19 -96z"/>
<path d="M293 560 c-44 -18 -60 -69 -55 -182 3 -49 44 -98 82 -98 16 0 41 10
56 23 23 20 27 33 31 94 3 42 1 85 -7 107 -16 50 -61 74 -107 56z m73 -31 c4
-6 7 -54 7 -106 0 -82 -3 -97 -20 -115 -48 -47 -87 15 -82 131 3 70 16 109 37
114 19 4 48 -8 58 -24z"/>
<path d="M946 561 c-4 -5 -20 -12 -36 -16 -17 -4 -28 -10 -25 -15 3 -4 14 -6
25 -3 19 5 20 0 20 -106 0 -66 -4 -112 -10 -112 -5 -1 -14 -2 -19 -3 -5 0 -13
-4 -17 -9 -4 -4 23 -7 59 -7 41 0 67 4 67 11 0 5 -4 8 -9 5 -5 -4 -16 -4 -24
-1 -11 5 -14 31 -13 131 1 117 -4 149 -18 125z"/>
</g>
</svg>
